<svg width="28" height="39" viewBox="0 0 28 39" fill="none" xmlns="http://www.w3.org/2000/svg">
<path fill-rule="evenodd" clip-rule="evenodd" d="M5.56993 0.663721C5.45792 0.708213 5.22305 0.879064 5.04788 1.04343C4.33098 1.71656 4.34807 1.48861 4.34807 10.3461V18.5896H2.95434C1.85872 18.5896 1.45962 18.6454 1.08767 18.8503C-0.36471 19.6508 -0.36202 21.809 1.09253 22.5668C1.45025 22.7533 1.90271 22.813 2.95651 22.8131L4.34807 22.8134V25.1914V27.5693L2.88866 27.6214C1.66602 27.6652 1.349 27.7252 0.934538 27.9913C-0.319507 28.7965 -0.290963 30.7355 0.986768 31.5434C1.35559 31.7767 1.67192 31.8233 2.88866 31.8237L4.34807 31.8243V34.4785C4.34807 36.9993 4.36343 37.1562 4.65355 37.5982C5.12953 38.3235 5.58554 38.606 6.28111 38.606C7.0407 38.606 7.62235 38.3073 8.03681 37.7045C8.33709 37.268 8.35513 37.1091 8.39721 34.5345L8.44164 31.8243H13.1628C17.8451 31.8243 17.8877 31.8217 18.3452 31.5047C19.5917 30.641 19.5642 28.9469 18.2876 27.9654C17.9189 27.6818 17.7285 27.6693 13.1627 27.6289L8.4209 27.587V25.2102V22.8336L13.8174 22.7763C19.6891 22.7141 19.8309 22.697 21.6711 21.8317C23.8105 20.8257 25.7541 18.8938 26.7976 16.7365C27.7501 14.767 28.0188 13.465 27.939 11.2039C27.886 9.69511 27.8087 9.16671 27.5061 8.24122C26.3739 4.77881 23.9624 2.2728 20.5714 1.03478L19.4853 0.638323L12.6294 0.610584C8.85869 0.595273 5.68193 0.61923 5.56993 0.663721ZM19.2693 5.05855C21.3809 5.74015 23.2663 7.82476 23.7535 10.0169C23.8291 10.3566 23.8923 11.1191 23.8942 11.7111C23.9041 14.9385 21.6845 17.7734 18.6302 18.4341C18.1845 18.5305 16.1052 18.5896 13.1658 18.5896H8.4209V11.6907V4.79178H13.4319C17.9686 4.79178 18.5211 4.817 19.2693 5.05855Z" fill="white"/>
</svg>
