<svg width="27" height="33" viewBox="0 0 27 33" fill="none" xmlns="http://www.w3.org/2000/svg">
<path fill-rule="evenodd" clip-rule="evenodd" d="M5.98945 22.6337C5.03755 22.0532 3.9136 21.8213 2.80966 21.9775H0V32.0721H2.23763V28.2194H3.19662C4.19008 28.3214 5.18835 28.0778 6.0231 27.5296C6.73164 26.9218 7.1223 26.0227 7.08303 25.09C7.13549 24.1429 6.72839 23.2285 5.98945 22.6337ZM4.18925 26.3182C3.76661 26.5043 3.30193 26.574 2.84331 26.5201H2.18716V23.66H2.84331C3.31976 23.6093 3.80043 23.7031 4.2229 23.9292C4.61634 24.2032 4.8393 24.6618 4.81175 25.1405C4.86272 25.6231 4.6167 26.0885 4.18925 26.3182ZM11.8948 21.9775H9.10194V32.0721H11.777C13.1403 32.2055 14.5131 31.9426 15.7307 31.315C17.0705 30.3165 17.7862 28.6869 17.615 27.0248C17.7153 25.6009 17.208 24.2011 16.2186 23.1721C14.9965 22.2088 13.438 21.7783 11.8948 21.9775ZM14.1156 29.784C13.4147 30.178 12.6121 30.3538 11.8107 30.2887H11.3732V23.7609H11.777C13.1902 23.7609 13.7455 23.8955 14.3007 24.4002C14.9745 25.1018 15.3224 26.0542 15.2596 27.0248C15.3462 28.0753 14.9201 29.103 14.1156 29.784ZM20.0714 32.0721H22.3427V27.8492H26.9189V26.0659H22.3427V23.7609H26.9189V21.9775H20.0714V32.0721ZM18.5067 0.105957H0V18.6127H3.36486V15.2478V13.4813V3.47082H17.1103L23.554 9.91452V13.4813V15.2478V18.6127H26.9189V8.51811L18.5067 0.105957Z" fill="white"/>
</svg>
