<svg width="29" height="37" viewBox="0 0 29 37" fill="none" xmlns="http://www.w3.org/2000/svg">
<path d="M6.10352e-05 30.6519C6.10352e-05 34.2436 1.84579 36.106 5.40422 36.106H23.1132C26.6717 36.106 28.5174 34.2436 28.5174 30.6519V5.56C28.5174 1.98494 26.6717 0.105957 23.1132 0.105957H5.40422C1.84579 0.105957 6.10352e-05 1.98494 6.10352e-05 5.56V30.6519ZM3.25918 30.4524V5.75954C3.25918 4.21312 4.05734 3.36508 5.67027 3.36508H22.8305C24.4435 3.36508 25.2583 4.21312 25.2583 5.75954V30.4524C25.2583 31.9988 24.4435 32.8468 22.8305 32.8468H5.67027C4.05734 32.8468 3.25918 31.9988 3.25918 30.4524ZM7.18343 9.60065C8.0481 9.60065 8.72985 8.90226 8.72985 8.05422C8.72985 7.18956 8.0481 6.5078 7.18343 6.5078C6.3354 6.5078 5.63701 7.20619 5.63701 8.05422C5.63701 8.90226 6.3354 9.60065 7.18343 9.60065ZM11.7562 9.13506H21.7996C22.3982 9.13506 22.8804 8.65284 22.8804 8.05422C22.8804 7.45561 22.3982 6.97339 21.7996 6.97339H11.7562C11.1576 6.97339 10.6753 7.45561 10.6753 8.05422C10.6753 8.65284 11.1576 9.13506 11.7562 9.13506ZM7.18343 14.5558C8.0481 14.5558 8.72985 13.8575 8.72985 13.0094C8.72985 12.1448 8.0481 11.4796 7.18343 11.4796C6.31877 11.4796 5.63701 12.1614 5.63701 13.0094C5.63701 13.8575 6.31877 14.5558 7.18343 14.5558ZM11.7562 14.0903H21.7996C22.4148 14.0903 22.8804 13.608 22.8804 13.0094C22.8804 12.4108 22.4148 11.9452 21.7996 11.9452H11.7562C11.1409 11.9452 10.6753 12.4108 10.6753 13.0094C10.6753 13.608 11.1409 14.0903 11.7562 14.0903ZM7.18343 19.7605C8.0481 19.7605 8.72985 19.0621 8.72985 18.214C8.72985 17.3494 8.0481 16.651 7.18343 16.651C6.3354 16.651 5.63701 17.366 5.63701 18.214C5.63701 19.0454 6.3354 19.7605 7.18343 19.7605ZM11.7562 19.2949H21.7996C22.3982 19.2949 22.8804 18.796 22.8804 18.214C22.8804 17.6154 22.4148 17.1332 21.7996 17.1332H11.7562C11.1409 17.1332 10.6753 17.6154 10.6753 18.214C10.6753 18.796 11.1576 19.2949 11.7562 19.2949Z" fill="white"/>
</svg>
