<svg width="47" height="38" viewBox="0 0 47 38" fill="none" xmlns="http://www.w3.org/2000/svg">
<path fill-rule="evenodd" clip-rule="evenodd" d="M4.51516 2.16151C4.51516 1.02627 3.57902 0.105957 2.42425 0.105957C1.26949 0.105957 0.333344 1.02627 0.333344 2.16151V22.7171V28.8837V35.0504C0.333344 36.1857 1.26949 37.106 2.42425 37.106C3.57902 37.106 4.51516 36.1857 4.51516 35.0504V30.9393H42.1515V35.0504C42.1515 36.1857 43.0876 37.106 44.2424 37.106C45.3972 37.106 46.3333 36.1857 46.3333 35.0504V28.8837V22.7171V16.5504C46.3333 10.8741 41.6526 6.27262 35.8788 6.27262H23.3333C22.1785 6.27262 21.2424 7.19294 21.2424 8.32818V13.4671C21.2424 9.49368 17.966 6.27262 13.9243 6.27262C9.88253 6.27262 6.60607 9.49368 6.60607 13.4671C6.60607 17.4405 9.88253 20.6615 13.9243 20.6615H4.51516V2.16151ZM13.9243 20.6615C17.966 20.6615 21.2424 17.4405 21.2424 13.4671V20.6615H13.9243ZM42.1515 24.7726V26.8282H4.51516V24.7726H23.3333H42.1515ZM42.1515 16.5504V20.6615H25.4243V10.3837H35.8788C39.3432 10.3837 42.1515 13.1447 42.1515 16.5504ZM10.7879 13.4671C10.7879 11.7642 12.1921 10.3837 13.9243 10.3837C15.6564 10.3837 17.0606 11.7642 17.0606 13.4671C17.0606 15.1699 15.6564 16.5504 13.9243 16.5504C12.1921 16.5504 10.7879 15.1699 10.7879 13.4671Z" fill="#13AB7B"/>
</svg>
