<svg width="48" height="47" viewBox="0 0 48 47" fill="none" xmlns="http://www.w3.org/2000/svg">
<path fill-rule="evenodd" clip-rule="evenodd" d="M0.666656 23.106C0.666656 10.4034 11.0586 0.105957 23.8777 0.105957C36.6968 0.105957 47.0887 10.4034 47.0887 23.106C47.0887 35.8086 36.6968 46.106 23.8777 46.106C11.0586 46.106 0.666656 35.8086 0.666656 23.106ZM23.8777 4.70596C13.6224 4.70596 5.30886 12.9439 5.30886 23.106C5.30886 33.2681 13.6224 41.506 23.8777 41.506C34.133 41.506 42.4465 33.2681 42.4465 23.106C42.4465 12.9439 34.133 4.70596 23.8777 4.70596ZM23.8777 9.30596C25.1596 9.30596 26.1988 10.3357 26.1988 11.606V21.6845L34.2001 25.6488C35.3467 26.2169 35.8114 27.5984 35.2381 28.7346C34.6648 29.8707 33.2706 30.3312 32.124 29.7631L22.8396 25.1631C22.0533 24.7735 21.5566 23.9771 21.5566 23.106V11.606C21.5566 10.3357 22.5958 9.30596 23.8777 9.30596Z" fill="#13AB7B"/>
</svg>
