<svg width="44" height="49" viewBox="0 0 44 49" fill="none" xmlns="http://www.w3.org/2000/svg">
<path d="M10.9092 28.4696C10.9092 27.2646 11.886 26.2878 13.091 26.2878C14.296 26.2878 15.2728 27.2646 15.2728 28.4696C15.2728 29.6746 14.296 30.6514 13.091 30.6514C11.886 30.6514 10.9092 29.6746 10.9092 28.4696Z" fill="#13AB7B"/>
<path d="M13.091 35.015C11.886 35.015 10.9092 35.9918 10.9092 37.1969C10.9092 38.4019 11.886 39.3787 13.091 39.3787C14.296 39.3787 15.2728 38.4019 15.2728 37.1969C15.2728 35.9918 14.296 35.015 13.091 35.015Z" fill="#13AB7B"/>
<path d="M19.6364 28.4696C19.6364 27.2646 20.6132 26.2878 21.8182 26.2878C23.0232 26.2878 24 27.2646 24 28.4696C24 29.6746 23.0232 30.6514 21.8182 30.6514C20.6132 30.6514 19.6364 29.6746 19.6364 28.4696Z" fill="#13AB7B"/>
<path d="M21.8182 35.015C20.6132 35.015 19.6364 35.9918 19.6364 37.1969C19.6364 38.4019 20.6132 39.3787 21.8182 39.3787C23.0232 39.3787 24 38.4019 24 37.1969C24 35.9918 23.0232 35.015 21.8182 35.015Z" fill="#13AB7B"/>
<path d="M28.3637 28.4696C28.3637 27.2646 29.3405 26.2878 30.5455 26.2878C31.7505 26.2878 32.7273 27.2646 32.7273 28.4696C32.7273 29.6746 31.7505 30.6514 30.5455 30.6514C29.3405 30.6514 28.3637 29.6746 28.3637 28.4696Z" fill="#13AB7B"/>
<path d="M30.5455 35.015C29.3405 35.015 28.3637 35.9918 28.3637 37.1969C28.3637 38.4019 29.3405 39.3787 30.5455 39.3787C31.7505 39.3787 32.7273 38.4019 32.7273 37.1969C32.7273 35.9918 31.7505 35.015 30.5455 35.015Z" fill="#13AB7B"/>
<path fill-rule="evenodd" clip-rule="evenodd" d="M8.72733 2.28778C8.72733 1.0828 9.70418 0.105957 10.9092 0.105957C12.1141 0.105957 13.091 1.0828 13.091 2.28778V4.46959H30.5455V2.28778C30.5455 1.0828 31.5223 0.105957 32.7273 0.105957C33.9324 0.105957 34.9091 1.0828 34.9091 2.28778V4.46959H37.091C40.706 4.46959 43.6364 7.4001 43.6364 11.015V41.5605C43.6364 45.1756 40.706 48.106 37.091 48.106H6.54552C2.93057 48.106 6.10352e-05 45.1756 6.10352e-05 41.5605V11.015C6.10352e-05 7.4001 2.93057 4.46959 6.54552 4.46959H8.72733V2.28778ZM30.5455 8.83323V11.015C30.5455 12.22 31.5223 13.1969 32.7273 13.1969C33.9324 13.1969 34.9091 12.22 34.9091 11.015V8.83323H37.091C38.296 8.83323 39.2728 9.81007 39.2728 11.015V17.5605H4.3637V11.015C4.3637 9.81007 5.34054 8.83323 6.54552 8.83323H8.72733V11.015C8.72733 12.22 9.70418 13.1969 10.9092 13.1969C12.1141 13.1969 13.091 12.22 13.091 11.015V8.83323H30.5455ZM4.3637 21.9241V41.5605C4.3637 42.7655 5.34054 43.7423 6.54552 43.7423H37.091C38.296 43.7423 39.2728 42.7655 39.2728 41.5605V21.9241H4.3637Z" fill="#13AB7B"/>
</svg>
