<svg width="309" height="70" viewBox="0 0 309 70" fill="none" xmlns="http://www.w3.org/2000/svg">
<rect x="3.1875" y="7.17383" width="59.3745" height="60.1715" rx="5.9773" fill="#13AB7B"/>
<path fill-rule="evenodd" clip-rule="evenodd" d="M20.6393 4.77564L44.5493 4.77564C48.9911 4.77561 52.4776 4.77559 55.1991 5.14149C57.987 5.51632 60.1954 6.29963 61.93 8.03427C63.6647 9.7689 64.448 11.9773 64.8228 14.7652C65.1887 17.4867 65.1887 20.9731 65.1887 25.4149L65.1886 49.325C65.1887 53.7668 65.1887 57.2532 64.8228 59.9747C64.448 62.7627 63.6647 64.971 61.93 66.7057C60.1954 68.4403 57.987 69.2236 55.1991 69.5984C52.4776 69.9643 48.9912 69.9643 44.5494 69.9643L20.6393 69.9643C16.1975 69.9643 12.7111 69.9643 9.98954 69.5984C7.20164 69.2236 4.99325 68.4403 3.25862 66.7057C1.52399 64.971 0.740669 62.7626 0.365846 59.9747C-5.29082e-05 57.2532 -3.15798e-05 53.7668 -4.30841e-06 49.325L-1.75058e-06 25.415C-2.80716e-05 20.9732 -4.87484e-05 17.4867 0.36585 14.7652C0.740674 11.9773 1.52399 9.76889 3.25862 8.03426C4.99326 6.29963 7.20165 5.51631 9.98955 5.14149C12.7111 4.77559 16.1975 4.77561 20.6393 4.77564ZM10.3887 8.11014C7.93292 8.44031 6.462 9.06697 5.37667 10.1523C4.29134 11.2376 3.66467 12.7086 3.3345 15.1643C2.99854 17.6631 2.99536 20.9482 2.99536 25.5292L2.99536 49.2107C2.99536 53.7917 2.99854 57.0768 3.3345 59.5756C3.66467 62.0314 4.29133 63.5023 5.37666 64.5876C6.46199 65.673 7.93292 66.2996 10.3887 66.6298C12.8875 66.9657 16.1726 66.9689 20.7536 66.9689L44.4351 66.9689C49.0161 66.9689 52.3011 66.9658 54.8 66.6298C57.2557 66.2996 58.7266 65.673 59.812 64.5876C60.8973 63.5023 61.524 62.0314 61.8541 59.5756C62.1901 57.0768 62.1933 53.7917 62.1933 49.2107L62.1933 25.5292C62.1933 20.9482 62.1901 17.6631 61.8542 15.1643C61.524 12.7086 60.8973 11.2376 59.812 10.1523C58.7267 9.06698 57.2557 8.44031 54.8 8.11015C52.3011 7.77419 49.0161 7.77101 44.435 7.771L20.7536 7.771C16.1726 7.771 12.8875 7.77418 10.3887 8.11014Z" fill="white"/>
<path fill-rule="evenodd" clip-rule="evenodd" d="M33.0459 55.9187C20.4465 55.9187 9.43281 47.6566 9.67762 38.8437C9.36506 32.3984 12.9666 25.5891 21.0716 21.9677C24.1002 20.6096 29.2629 19.4779 34.2746 19.424C35.3787 19.3912 36.0941 19.2511 37.0672 19.0605C37.6898 18.9385 38.418 18.7959 39.421 18.6475C41.0755 18.4027 43.3378 18.1579 45.3112 18.9498C47.6218 20.1163 49.8703 21.83 49.8703 22.679C49.8703 23.5281 48.3563 25.0124 47.377 25.1348C45.6836 25.3465 43.5236 25.0074 40.855 24.5884C38.795 24.265 36.4319 23.8941 33.7465 23.6922C22.3973 23.5305 14.0702 31.1836 14.3289 38.5989C14.5875 48.0729 26.439 52.1855 33.7465 52.1855C54.106 52.304 53.4542 34.1611 48.6806 33.294C47.1204 33.0106 45.8828 35.7135 44.5189 38.6924C42.9374 42.1466 41.1859 45.9719 38.5643 45.943C36.1033 45.9176 34.165 41.8206 32.5492 38.4055C31.4195 36.0174 30.4474 33.9628 29.5646 33.8667C27.9941 33.6957 26.7939 37.4033 25.7427 40.6505C25.0346 42.8377 24.3942 44.8161 23.7538 45.2595C22.2849 46.7283 18.4361 43.5458 18.9801 42.3218C19.5119 41.1252 20.0063 41.5793 20.5438 42.073C20.996 42.4883 21.4788 42.9317 22.0401 42.4442C22.2496 42.2599 22.5485 41.3799 22.9592 40.1706C24.1334 36.7131 26.2221 30.5631 29.7514 30.2756C32.2912 30.0798 34.3141 34.6578 35.9225 38.2978C36.9692 40.6666 37.8404 42.6382 38.5643 42.6382C39.396 42.622 40.2229 40.7975 41.232 38.5708C42.9168 34.8532 45.1096 30.0148 48.6806 30.6012C57.8297 32.1035 58.5465 55.9294 33.0459 55.9187ZM44.7909 20.9134C44.7909 21.3302 44.1519 21.3473 42.8355 21.2883C41.8483 21.2589 41.226 20.9639 41.3804 20.4563C41.5349 19.9487 42.4028 19.8949 43.3452 20.1162C43.7983 20.2226 44.7909 20.4966 44.7909 20.9134Z" fill="white"/>
<path d="M99.9404 26.0658C98.1612 28.2993 96.5712 29.2836 93.6563 29.2836C89.6057 29.2836 86.9936 26.2929 86.9936 22.2423C86.9936 18.3053 89.4543 15.2768 93.6942 15.2768C96.2305 15.2768 98.1991 16.526 99.5997 18.4567L104.029 13.9897C101.455 10.3555 97.5934 9.06836 93.202 9.06836C85.4036 9.06836 80.0659 14.7468 80.0659 22.4316C80.0659 30.1543 85.4415 35.6434 93.202 35.6434C97.8583 35.6434 101.606 33.8642 104.445 30.3057L99.9404 26.0658ZM106.324 34.9999H112.759L113.251 20.1981L118.173 28.8293H121.845L126.274 20.1981L126.88 34.9999H133.656L132.482 9.74977H126.047L120.028 20.7659L113.895 9.74977H107.497L106.324 34.9999ZM137.648 27.4665H150.14V21.3338H137.648V27.4665ZM161.353 25.1194H162.943C164.798 25.1194 165.555 26.2551 166.426 28.0343L169.909 34.9999H177.934L173.089 26.028C171.915 23.8701 170.628 22.5452 168.357 21.8259C170.174 21.0688 171.65 19.971 172.862 17.5482L176.799 9.74977H169.417L166.275 16.2232C165.366 18.1539 164.42 18.9867 162.489 18.9867H161.353V9.74977H154.653V34.9999H161.353V25.1194ZM184.639 16.9803C184.449 26.9744 182.859 29.5107 180.02 29.5107H179.755V35.0377C180.172 35.0756 180.512 35.1134 180.929 35.1134C186.418 35.1134 189.409 31.555 190.204 22.3559H193.194V34.9999H199.592V16.9803H184.639ZM221.654 34.9999V16.9803H216.127L209.35 26.3308V16.9803H203.255V34.9999H208.404L215.559 25.1951V34.9999H221.654ZM237.288 16.9803V23.3023H231.723V16.9803H225.325V34.9999H231.723V28.6779H237.288V34.9999H243.685V16.9803H237.288ZM265.756 34.9999V16.9803H260.229L253.452 26.3308V16.9803H247.358V34.9999H252.506L259.661 25.1951V34.9999H265.756ZM275.711 28.6779H276.847C278.21 28.6779 278.702 29.5107 279.27 30.5328L281.579 34.9999H288.734L285.705 29.5107C284.532 27.3908 283.472 26.3308 281.693 25.763C283.169 25.2708 284.191 24.3244 285.213 22.3938L287.939 16.9803H281.428L279.308 21.3338C278.664 22.6587 278.134 23.3023 276.809 23.3023H275.711V16.9803H269.427V34.9999H275.711V28.6779ZM306.599 34.9999V24.0973C306.599 19.0624 303.23 16.4125 298.309 16.4125C294.069 16.4125 291.419 17.6239 289.904 18.8353L292.327 22.5073C293.387 21.7502 295.129 21.0688 297.4 21.0688C298.687 21.0688 300.353 21.4852 300.353 23.3402V23.6809C299.482 23.5673 298.99 23.5294 297.816 23.5294C293.236 23.5294 289.299 25.763 289.299 30.1543C289.299 34.4699 292.517 35.6056 294.864 35.6056C297.286 35.6056 298.725 35.0377 300.353 33.3342L300.58 34.9999H306.599ZM300.353 28.3372C300.353 30.6086 298.952 31.2521 297.627 31.2521C296.226 31.2521 295.507 30.5707 295.507 29.2079C295.507 27.9586 296.491 26.9744 298.611 26.9744C299.444 26.9744 300.012 27.0122 300.353 27.1258V28.3372Z" fill="#13AB7B"/>
<path d="M83.4841 49.2294C83.1685 54.1929 82.6234 57.435 80.7011 60.0459H79.2092V66.3579H82.2217V62.8576H91.8906V66.4153H94.9032V60.0459H93.3252V49.2294H83.4841ZM90.0544 60.0459H84.2301C85.4638 58.0949 86.009 55.6275 86.3246 52.0411H90.0544V60.0459ZM100.772 49.2294C100.543 56.316 99.7107 59.9311 96.9277 59.9311H96.7555V62.8863C96.9564 62.915 97.1285 62.9437 97.3294 62.9437C101.719 62.9437 103.383 59.013 103.756 52.2419H107.543V62.8576H110.929V49.2294H100.772ZM125.537 49.2294H118.852C116.184 49.2294 113.946 50.6926 113.946 53.4469C113.946 55.5414 115.409 57.0046 117.016 57.3776C116.241 57.6932 115.811 58.0949 115.208 59.1278L113.114 62.8576H116.671L118.307 59.6442C118.852 58.64 119.311 58.2957 120.229 58.2957H122.209V62.8576H125.537V49.2294ZM119.426 55.6848C118.077 55.6848 117.303 54.9963 117.303 53.7625C117.303 52.4714 118.135 51.8402 119.54 51.8402H122.209V55.6848H119.426ZM137.084 49.2294C136.768 54.1929 136.223 57.435 134.301 60.0459H132.809V66.3579H135.821V62.8576H145.49V66.4153H148.503V60.0459H146.925V49.2294H137.084ZM143.654 60.0459H137.83C139.063 58.0949 139.609 55.6275 139.924 52.0411H143.654V60.0459ZM163.566 56.5743C163.566 52.7871 161.816 48.7703 157.054 48.7703C152.922 48.7703 150.11 51.7255 150.11 56.0004C150.11 60.2754 152.893 63.3167 157.427 63.3167C161.099 63.3167 162.907 61.3944 163.394 60.9066L161.558 58.8409C161.013 59.386 159.578 60.4189 157.455 60.4189C154.959 60.4189 153.754 59.013 153.438 57.062H163.566V56.5743ZM156.881 51.6107C159.062 51.6107 159.951 52.9879 160.095 54.6233H153.467C153.697 53.1887 154.586 51.6107 156.881 51.6107ZM172.509 62.8576V52.2419H176.985V49.2294H164.648V52.2419H169.124V62.8576H172.509ZM191.473 56.5743C191.473 52.7871 189.723 48.7703 184.96 48.7703C180.829 48.7703 178.017 51.7255 178.017 56.0004C178.017 60.2754 180.8 63.3167 185.333 63.3167C189.006 63.3167 190.813 61.3944 191.301 60.9066L189.465 58.8409C188.919 59.386 187.485 60.4189 185.362 60.4189C182.866 60.4189 181.661 59.013 181.345 57.062H191.473V56.5743ZM184.788 51.6107C186.968 51.6107 187.858 52.9879 188.001 54.6233H181.374C181.603 53.1887 182.493 51.6107 184.788 51.6107ZM194.086 49.2294V62.8576H196.955L203.583 53.7052V62.8576H206.825V49.2294H203.841L197.328 58.181V49.2294H194.086ZM196.009 43.1182C196.009 45.1839 197.501 47.1923 200.427 47.1923C203.354 47.1923 204.845 45.1839 204.845 43.1182H202.206C202.206 44.0363 201.775 44.9831 200.427 44.9831C199.079 44.9831 198.648 44.0363 198.648 43.1182H196.009Z" fill="#13AB7B"/>
</svg>
