<svg width="376" height="156" viewBox="0 0 376 156" fill="none" xmlns="http://www.w3.org/2000/svg">
<g filter="url(#filter0_d_3_21320)">
<path d="M41.3865 109.422L26.2551 34.5898C23.6216 21.5656 34.1863 9.6419 47.4328 10.688L351 34.6604L316.183 100.124C313.425 105.309 308.186 108.704 302.326 109.102L62.3459 125.412C52.3381 126.092 43.3746 119.254 41.3865 109.422Z" fill="white"/>
</g>
<path d="M326.107 33.6189C323.372 31.3113 324.16 26.9078 327.526 25.6927L354.461 15.9697C357.828 14.7546 361.247 17.6392 360.616 21.162L355.569 49.35C354.938 52.8728 350.73 54.3916 347.995 52.084L326.107 33.6189Z" fill="#E55797"/>
<path d="M10.7075 106.22C7.97211 103.912 8.76059 99.5084 12.1268 98.2933L39.0619 88.5703C42.4281 87.3552 45.8474 90.2398 45.2166 93.7626L40.1694 121.951C39.5386 125.473 35.3309 126.992 32.5954 124.685L10.7075 106.22Z" fill="#21DFFF"/>
<path d="M115.479 91.9824H114.567L111.842 88.9283V91.9824H111.083V85.9586H111.842V88.8777L114.5 85.9586H115.36L112.745 88.8861L115.479 91.9824ZM121.748 91.9824H120.998V88.0762H119.665C119.591 89.0267 119.49 89.7945 119.361 90.3794C119.232 90.9588 119.06 91.3806 118.846 91.645C118.632 91.9093 118.363 92.0415 118.036 92.0415C117.963 92.0415 117.89 92.0359 117.817 92.0246C117.749 92.019 117.693 92.0049 117.648 91.9824V91.4256C117.682 91.4368 117.719 91.4453 117.758 91.4509C117.797 91.4565 117.837 91.4593 117.876 91.4593C118.18 91.4593 118.422 91.1359 118.602 90.4891C118.787 89.8423 118.928 88.8327 119.023 87.4603H121.748V91.9824ZM125.993 90.2191C125.993 90.2866 125.99 90.3879 125.985 90.5229C125.979 90.6578 125.971 90.7928 125.959 90.9278C125.954 91.0628 125.948 91.1697 125.943 91.2484L128.364 87.4603H129.275V91.9824H128.583V89.3164C128.583 89.2264 128.583 89.1083 128.583 88.9621C128.589 88.8158 128.595 88.6724 128.6 88.5318C128.606 88.3855 128.611 88.2759 128.617 88.2027L126.213 91.9824H125.293V87.4603H125.993V90.2191ZM133.566 87.4603V89.3417H136.021V87.4603H136.763V91.9824H136.021V89.966H133.566V91.9824H132.823V87.4603H133.566ZM141.005 90.2191C141.005 90.2866 141.002 90.3879 140.996 90.5229C140.991 90.6578 140.982 90.7928 140.971 90.9278C140.965 91.0628 140.96 91.1697 140.954 91.2484L143.375 87.4603H144.287V91.9824H143.595V89.3164C143.595 89.2264 143.595 89.1083 143.595 88.9621C143.6 88.8158 143.606 88.6724 143.612 88.5318C143.617 88.3855 143.623 88.2759 143.629 88.2027L141.224 91.9824H140.304V87.4603H141.005V90.2191ZM150.509 87.4603H151.319L149.387 89.637L151.48 91.9824H150.619L148.577 89.6876V91.9824H147.835V87.4603H148.577V89.6539L150.509 87.4603ZM156.122 87.3844C156.674 87.3844 157.081 87.5053 157.346 87.7472C157.61 87.989 157.742 88.3743 157.742 88.903V91.9824H157.202L157.059 91.3412H157.025C156.828 91.5887 156.62 91.7715 156.401 91.8896C156.187 92.0077 155.889 92.0668 155.506 92.0668C155.096 92.0668 154.756 91.9599 154.486 91.7462C154.216 91.5268 154.081 91.1866 154.081 90.7253C154.081 90.2754 154.258 89.9295 154.612 89.6876C154.967 89.4401 155.512 89.3052 156.249 89.2827L157.017 89.2573V88.9874C157.017 88.6105 156.935 88.349 156.772 88.2027C156.609 88.0565 156.378 87.9834 156.08 87.9834C155.844 87.9834 155.619 88.02 155.405 88.0931C155.192 88.1606 154.992 88.2393 154.806 88.3293L154.578 87.7725C154.775 87.6656 155.009 87.5756 155.279 87.5025C155.549 87.4238 155.83 87.3844 156.122 87.3844ZM156.342 89.7973C155.779 89.8198 155.388 89.9098 155.169 90.0673C154.955 90.2248 154.848 90.4469 154.848 90.7338C154.848 90.9869 154.924 91.1725 155.076 91.2906C155.234 91.4087 155.433 91.4678 155.675 91.4678C156.058 91.4678 156.375 91.3637 156.629 91.1556C156.882 90.9419 157.008 90.6157 157.008 90.177V89.772L156.342 89.7973ZM168.239 87.4603V91.3581H168.897V93.5517H168.18V91.9824H165.033V93.5517H164.325V91.3581H164.687C165.076 90.8238 165.365 90.2163 165.556 89.5358C165.753 88.8496 165.855 88.1578 165.86 87.4603H168.239ZM166.518 88.0425C166.496 88.4249 166.437 88.8214 166.341 89.232C166.245 89.637 166.122 90.0251 165.97 90.3963C165.824 90.7675 165.652 91.0881 165.455 91.3581H167.522V88.0425H166.518ZM175.335 91.9824H174.584V88.0762H173.251C173.178 89.0267 173.077 89.7945 172.948 90.3794C172.818 90.9588 172.647 91.3806 172.433 91.645C172.219 91.9093 171.949 92.0415 171.623 92.0415C171.55 92.0415 171.477 92.0359 171.404 92.0246C171.336 92.019 171.28 92.0049 171.235 91.9824V91.4256C171.269 91.4368 171.305 91.4453 171.345 91.4509C171.384 91.4565 171.423 91.4593 171.463 91.4593C171.766 91.4593 172.008 91.1359 172.188 90.4891C172.374 89.8423 172.514 88.8327 172.61 87.4603H175.335V91.9824ZM179.158 91.9824H178.297L179.588 90.0841C179.414 90.0392 179.245 89.9688 179.082 89.8732C178.919 89.772 178.787 89.6342 178.686 89.4598C178.584 89.2798 178.534 89.0577 178.534 88.7933C178.534 88.3602 178.68 88.0312 178.972 87.8062C179.265 87.5756 179.653 87.4603 180.137 87.4603H182.162V91.9824H181.419V90.1854H180.322L179.158 91.9824ZM179.251 88.8018C179.251 89.0605 179.346 89.2545 179.538 89.3839C179.735 89.5076 180.007 89.5695 180.356 89.5695H181.419V88.0762H180.213C179.87 88.0762 179.622 88.1437 179.47 88.2787C179.324 88.4137 179.251 88.588 179.251 88.8018ZM192.693 87.4603V91.3581H193.351V93.5517H192.634V91.9824H189.487V93.5517H188.778V91.3581H189.141C189.529 90.8238 189.819 90.2163 190.01 89.5358C190.207 88.8496 190.308 88.1578 190.314 87.4603H192.693ZM190.972 88.0425C190.949 88.4249 190.89 88.8214 190.795 89.232C190.699 89.637 190.575 90.0251 190.423 90.3963C190.277 90.7675 190.106 91.0881 189.909 91.3581H191.976V88.0425H190.972ZM198.093 87.3759C198.481 87.3759 198.813 87.4603 199.088 87.629C199.37 87.7978 199.583 88.0368 199.73 88.3462C199.881 88.6499 199.957 89.0071 199.957 89.4176V89.8648H196.861C196.872 90.3766 197.002 90.7675 197.249 91.0375C197.502 91.3019 197.854 91.434 198.304 91.434C198.591 91.434 198.844 91.4087 199.063 91.3581C199.288 91.3019 199.519 91.2231 199.755 91.1219V91.7715C199.524 91.8727 199.296 91.9459 199.071 91.9909C198.846 92.0415 198.579 92.0668 198.27 92.0668C197.843 92.0668 197.463 91.9796 197.131 91.8052C196.805 91.6309 196.549 91.3722 196.363 91.0291C196.183 90.6803 196.093 90.2557 196.093 89.7551C196.093 89.2602 196.175 88.8355 196.338 88.4812C196.507 88.1268 196.74 87.854 197.038 87.6628C197.342 87.4716 197.693 87.3759 198.093 87.3759ZM198.084 87.9834C197.73 87.9834 197.449 88.0987 197.241 88.3293C197.038 88.5543 196.917 88.8693 196.878 89.2742H199.181C199.176 88.8918 199.086 88.5824 198.911 88.3462C198.737 88.1043 198.461 87.9834 198.084 87.9834ZM206.339 88.0846H204.863V91.9824H204.129V88.0846H202.669V87.4603H206.339V88.0846ZM211.003 87.3759C211.391 87.3759 211.723 87.4603 211.999 87.629C212.28 87.7978 212.494 88.0368 212.64 88.3462C212.792 88.6499 212.868 89.0071 212.868 89.4176V89.8648H209.772C209.783 90.3766 209.912 90.7675 210.16 91.0375C210.413 91.3019 210.764 91.434 211.214 91.434C211.501 91.434 211.754 91.4087 211.974 91.3581C212.199 91.3019 212.429 91.2231 212.665 91.1219V91.7715C212.435 91.8727 212.207 91.9459 211.982 91.9909C211.757 92.0415 211.49 92.0668 211.181 92.0668C210.753 92.0668 210.373 91.9796 210.042 91.8052C209.715 91.6309 209.459 91.3722 209.274 91.0291C209.094 90.6803 209.004 90.2557 209.004 89.7551C209.004 89.2602 209.085 88.8355 209.249 88.4812C209.417 88.1268 209.651 87.854 209.949 87.6628C210.252 87.4716 210.604 87.3759 211.003 87.3759ZM210.995 87.9834C210.641 87.9834 210.359 88.0987 210.151 88.3293C209.949 88.5543 209.828 88.8693 209.788 89.2742H212.092C212.086 88.8918 211.996 88.5824 211.822 88.3462C211.647 88.1043 211.372 87.9834 210.995 87.9834ZM219.79 85.5874C219.75 86.0092 219.607 86.3298 219.36 86.5491C219.118 86.7629 218.73 86.8697 218.195 86.8697C217.644 86.8697 217.253 86.7629 217.023 86.5491C216.798 86.3354 216.671 86.0148 216.643 85.5874H217.335C217.363 85.8911 217.442 86.0964 217.571 86.2032C217.706 86.3045 217.92 86.3551 218.212 86.3551C218.471 86.3551 218.673 86.3017 218.82 86.1948C218.971 86.0823 219.061 85.8798 219.09 85.5874H219.79ZM216.829 90.2191C216.829 90.2866 216.826 90.3879 216.82 90.5229C216.814 90.6578 216.806 90.7928 216.795 90.9278C216.789 91.0628 216.784 91.1697 216.778 91.2484L219.199 87.4603H220.11V91.9824H219.419V89.3164C219.419 89.2264 219.419 89.1083 219.419 88.9621C219.424 88.8158 219.43 88.6724 219.436 88.5318C219.441 88.3855 219.447 88.2759 219.452 88.2027L217.048 91.9824H216.128V87.4603H216.829V90.2191ZM227.992 90.2191C227.992 90.2866 227.99 90.3879 227.984 90.5229C227.978 90.6578 227.97 90.7928 227.959 90.9278C227.953 91.0628 227.947 91.1697 227.942 91.2484L230.363 87.4603H231.274V91.9824H230.583V89.3164C230.583 89.2264 230.583 89.1083 230.583 88.9621C230.588 88.8158 230.594 88.6724 230.599 88.5318C230.605 88.3855 230.611 88.2759 230.616 88.2027L228.212 91.9824H227.292V87.4603H227.992V90.2191ZM242.278 87.4603V91.9824H241.535V88.0931H239.199V91.9824H238.456V87.4603H242.278ZM249.762 89.7129C249.762 90.461 249.57 91.0403 249.188 91.4509C248.811 91.8615 248.299 92.0668 247.652 92.0668C247.253 92.0668 246.896 91.9768 246.581 91.7968C246.272 91.6112 246.027 91.344 245.847 90.9953C245.667 90.641 245.577 90.2135 245.577 89.7129C245.577 88.9649 245.765 88.3884 246.142 87.9834C246.519 87.5784 247.031 87.3759 247.678 87.3759C248.088 87.3759 248.448 87.4688 248.758 87.6544C249.073 87.8343 249.317 88.0987 249.492 88.4474C249.672 88.7905 249.762 89.2123 249.762 89.7129ZM246.345 89.7129C246.345 90.2473 246.449 90.6719 246.657 90.9869C246.871 91.2962 247.208 91.4509 247.669 91.4509C248.125 91.4509 248.459 91.2962 248.673 90.9869C248.887 90.6719 248.994 90.2473 248.994 89.7129C248.994 89.1786 248.887 88.7596 248.673 88.4559C248.459 88.1521 248.122 88.0003 247.661 88.0003C247.2 88.0003 246.865 88.1521 246.657 88.4559C246.449 88.7596 246.345 89.1786 246.345 89.7129ZM256.405 87.4603V91.3581H257.063V93.5517H256.346V91.9824H253.199V93.5517H252.491V91.3581H252.853C253.241 90.8238 253.531 90.2163 253.722 89.5358C253.919 88.8496 254.02 88.1578 254.026 87.4603H256.405ZM254.684 88.0425C254.662 88.4249 254.603 88.8214 254.507 89.232C254.411 89.637 254.288 90.0251 254.136 90.3963C253.99 90.7675 253.818 91.0881 253.621 91.3581H255.688V88.0425H254.684ZM262.21 87.3759C262.767 87.3759 263.214 87.57 263.552 87.9581C263.895 88.3462 264.066 88.9311 264.066 89.7129C264.066 90.4835 263.895 91.0684 263.552 91.4678C263.214 91.8671 262.764 92.0668 262.202 92.0668C261.853 92.0668 261.563 92.0021 261.333 91.8727C261.108 91.7378 260.931 91.5831 260.801 91.4087H260.751C260.762 91.5043 260.773 91.6253 260.784 91.7715C260.796 91.9177 260.801 92.0443 260.801 92.1512V94.0072H260.059V87.4603H260.666L260.768 88.0762H260.801C260.936 87.8793 261.113 87.7134 261.333 87.5784C261.552 87.4434 261.845 87.3759 262.21 87.3759ZM262.075 88.0003C261.614 88.0003 261.288 88.1296 261.097 88.3884C260.911 88.6471 260.813 89.0408 260.801 89.5695V89.7129C260.801 90.2698 260.891 90.7 261.071 91.0038C261.257 91.3019 261.597 91.4509 262.092 91.4509C262.368 91.4509 262.593 91.375 262.767 91.2231C262.947 91.0713 263.079 90.866 263.164 90.6072C263.254 90.3429 263.299 90.042 263.299 89.7045C263.299 89.187 263.197 88.7736 262.995 88.4643C262.798 88.1549 262.491 88.0003 262.075 88.0003ZM271.29 89.7129C271.29 90.461 271.099 91.0403 270.716 91.4509C270.34 91.8615 269.828 92.0668 269.181 92.0668C268.782 92.0668 268.424 91.9768 268.109 91.7968C267.8 91.6112 267.555 91.344 267.375 90.9953C267.195 90.641 267.105 90.2135 267.105 89.7129C267.105 88.9649 267.294 88.3884 267.671 87.9834C268.048 87.5784 268.559 87.3759 269.206 87.3759C269.617 87.3759 269.977 87.4688 270.286 87.6544C270.601 87.8343 270.846 88.0987 271.02 88.4474C271.2 88.7905 271.29 89.2123 271.29 89.7129ZM267.873 89.7129C267.873 90.2473 267.977 90.6719 268.185 90.9869C268.399 91.2962 268.737 91.4509 269.198 91.4509C269.653 91.4509 269.988 91.2962 270.202 90.9869C270.416 90.6719 270.522 90.2473 270.522 89.7129C270.522 89.1786 270.416 88.7596 270.202 88.4559C269.988 88.1521 269.651 88.0003 269.189 88.0003C268.728 88.0003 268.393 88.1521 268.185 88.4559C267.977 88.7596 267.873 89.1786 267.873 89.7129ZM276.39 92.0668C275.991 92.0668 275.633 91.9852 275.318 91.8221C275.009 91.659 274.764 91.4059 274.584 91.0628C274.41 90.7197 274.323 90.281 274.323 89.7467C274.323 89.1899 274.416 88.7371 274.601 88.3884C274.787 88.0396 275.037 87.7837 275.352 87.6206C275.673 87.4575 276.036 87.3759 276.441 87.3759C276.671 87.3759 276.893 87.4013 277.107 87.4519C277.321 87.4969 277.495 87.5531 277.63 87.6206L277.402 88.2365C277.267 88.1859 277.11 88.1381 276.93 88.0931C276.75 88.0481 276.581 88.0256 276.424 88.0256C275.535 88.0256 275.091 88.5965 275.091 89.7382C275.091 90.2838 275.197 90.7028 275.411 90.9953C275.631 91.2822 275.954 91.4256 276.381 91.4256C276.629 91.4256 276.845 91.4003 277.031 91.3497C277.222 91.299 277.397 91.2372 277.554 91.1641V91.8221C277.402 91.9009 277.234 91.9599 277.048 91.9993C276.868 92.0443 276.649 92.0668 276.39 92.0668ZM283.86 88.0846H282.384V91.9824H281.65V88.0846H280.19V87.4603H283.86V88.0846ZM289.535 87.4603H290.345L288.413 89.637L290.505 91.9824H289.645L287.603 89.6876V91.9824H286.86V87.4603H287.603V89.6539L289.535 87.4603ZM297.202 89.7129C297.202 90.461 297.011 91.0403 296.628 91.4509C296.251 91.8615 295.74 92.0668 295.093 92.0668C294.693 92.0668 294.336 91.9768 294.021 91.7968C293.712 91.6112 293.467 91.344 293.287 90.9953C293.107 90.641 293.017 90.2135 293.017 89.7129C293.017 88.9649 293.206 88.3884 293.583 87.9834C293.959 87.5784 294.471 87.3759 295.118 87.3759C295.529 87.3759 295.889 87.4688 296.198 87.6544C296.513 87.8343 296.758 88.0987 296.932 88.4474C297.112 88.7905 297.202 89.2123 297.202 89.7129ZM293.785 89.7129C293.785 90.2473 293.889 90.6719 294.097 90.9869C294.311 91.2962 294.648 91.4509 295.11 91.4509C295.565 91.4509 295.9 91.2962 296.114 90.9869C296.327 90.6719 296.434 90.2473 296.434 89.7129C296.434 89.1786 296.327 88.7596 296.114 88.4559C295.9 88.1521 295.562 88.0003 295.101 88.0003C294.64 88.0003 294.305 88.1521 294.097 88.4559C293.889 88.7596 293.785 89.1786 293.785 89.7129ZM304.124 88.5993C304.124 88.8805 304.04 89.0999 303.871 89.2573C303.702 89.4148 303.486 89.5217 303.221 89.5779V89.6117C303.502 89.6511 303.747 89.7523 303.955 89.9154C304.163 90.0729 304.267 90.3204 304.267 90.6578C304.267 91.0403 304.124 91.3581 303.837 91.6112C303.556 91.8587 303.089 91.9824 302.437 91.9824H300.488V87.4603H302.428C302.749 87.4603 303.036 87.4969 303.289 87.57C303.547 87.6375 303.75 87.7556 303.896 87.9243C304.048 88.0874 304.124 88.3124 304.124 88.5993ZM303.373 88.6921C303.373 88.4784 303.294 88.3237 303.137 88.2281C302.985 88.1268 302.735 88.0762 302.386 88.0762H301.23V89.3164H302.251C302.999 89.3164 303.373 89.1083 303.373 88.6921ZM303.5 90.6578C303.5 90.3991 303.401 90.2135 303.204 90.101C303.008 89.9885 302.718 89.9323 302.335 89.9323H301.23V91.3834H302.352C302.723 91.3834 303.008 91.33 303.204 91.2231C303.401 91.1106 303.5 90.9222 303.5 90.6578Z" fill="black"/>
<rect x="52.5918" y="49.8486" width="43.2926" height="43.2926" rx="8.97481" fill="#38916C"/>
<path d="M74.2115 85.0046C65.0421 85.0046 57.6689 79.3962 57.363 73.0583C57.1355 68.3677 59.5985 62.9319 65.497 60.2963C67.7011 59.308 71.4583 58.4844 75.1057 58.4451C76.4234 58.4059 77.4588 57.9745 79.0119 57.8568C80.3218 57.7392 82.0161 57.7 83.1377 58.1C84.5653 58.7275 85.4517 59.9119 86.4557 60.814L85.4438 61.5199L87.1851 62.4612L85.1379 62.1082L84.9497 62.9005C83.3574 62.7436 81.6239 62.4612 80.0551 62.3043C78.1961 61.8808 76.6509 61.5984 74.7213 61.5513C66.4618 61.4337 60.8692 67.0264 61.0574 72.423C61.2457 79.3178 69.9366 81.8827 75.2547 81.8827C90.0717 81.969 90.3384 68.8462 85.2164 68.5716C83.7496 68.501 81.5455 77.9059 77.9922 77.8667C74.9488 77.8353 73.1683 68.956 71.6779 68.956C70.4072 68.9874 68.964 75.3331 67.7717 77.5058C67.1207 78.7217 63.6851 75.2625 63.9204 74.7134C64.1557 74.1643 65.4186 76.6352 66.3128 75.8586C66.9011 75.3409 68.1325 66.1165 71.5995 65.8341C74.6507 65.5988 76.847 75.6312 78.1569 75.5292C79.7728 75.4978 82.2828 65.7243 84.9889 65.9988C93.5465 66.8773 92.7699 85.0125 74.2115 85.0046Z" fill="white"/>
<path d="M81.3282 59.6761C82.0184 59.7075 82.3008 59.6682 82.34 59.5192C82.3792 59.3623 82.0106 59.1898 81.5164 59.0643C81.0223 58.9466 80.583 59.127 80.5516 59.2761C80.5046 59.4329 80.8105 59.6604 81.3282 59.6761Z" fill="#27926D"/>
<path d="M126.407 67.1982C124.66 69.3671 123.1 70.3229 120.238 70.3229C116.263 70.3229 113.699 67.4187 113.699 63.4853C113.699 59.6621 116.114 56.7212 120.276 56.7212C122.765 56.7212 124.697 57.9343 126.072 59.8092L130.42 55.4713C127.893 51.9423 124.103 50.6924 119.793 50.6924C112.138 50.6924 106.899 56.2066 106.899 63.6691C106.899 71.1684 112.175 76.4988 119.793 76.4988C124.363 76.4988 128.041 74.771 130.828 71.3154L126.407 67.1982Z" fill="black"/>
<path d="M132.709 75.8738H139.026L139.509 61.5002L144.339 69.8817H147.944L152.291 61.5002L152.885 75.8738H159.537L158.385 51.3541H152.068L146.16 62.0516L140.141 51.3541H133.861L132.709 75.8738Z" fill="black"/>
<path d="M163.492 68.5583H175.754V62.603H163.492V68.5583Z" fill="black"/>
<path d="M185.571 51.3541C184.976 60.5444 183.787 66.0586 181 70.2861H178.548V81.5351H184.159V75.8738H199.282V81.5351H205.078V70.2861H202.44V51.3541H185.571ZM196.235 70.2861H187.726C189.807 66.6468 190.661 61.6105 191.144 56.9418H196.235V70.2861Z" fill="black"/>
<path d="M216.227 71.0213C214.146 71.0213 212.808 69.4774 212.808 67.1247C212.808 64.7719 214.146 63.228 216.227 63.228C218.307 63.228 219.645 64.7719 219.645 67.1247C219.645 69.4774 218.307 71.0213 216.227 71.0213ZM206.9 67.1247C206.9 72.3447 210.727 76.462 216.227 76.462C221.726 76.462 225.553 72.3447 225.553 67.1247C225.553 61.9046 221.726 57.7873 216.227 57.7873C210.727 57.7873 206.9 61.9046 206.9 67.1247Z" fill="black"/>
<path d="M234.603 69.7347H235.718C237.056 69.7347 237.539 70.5434 238.096 71.536L240.363 75.8738H247.386L244.413 70.5434C243.261 68.4848 242.221 67.4555 240.474 66.9041C241.923 66.4262 242.927 65.5072 243.93 63.6323L246.605 58.3755H240.214L238.133 62.603C237.502 63.8897 236.981 64.5146 235.681 64.5146H234.603V58.3755H228.435V75.8738H234.603V69.7347Z" fill="black"/>
<path d="M248.331 58.3755V63.5956H253.793V75.8738H260.073V63.5956H265.535V58.3755H248.331Z" fill="black"/>
<path d="M276.135 71.0213C274.055 71.0213 272.717 69.4774 272.717 67.1247C272.717 64.7719 274.055 63.228 276.135 63.228C278.216 63.228 279.554 64.7719 279.554 67.1247C279.554 69.4774 278.216 71.0213 276.135 71.0213ZM266.809 67.1247C266.809 72.3447 270.636 76.462 276.135 76.462C281.635 76.462 285.462 72.3447 285.462 67.1247C285.462 61.9046 281.635 57.7873 276.135 57.7873C270.636 57.7873 266.809 61.9046 266.809 67.1247Z" fill="black"/>
<path d="M288.344 83.2261H294.587V75.9841C295.144 76.1312 296.184 76.3885 297.522 76.3885C302.575 76.3885 306.588 72.7124 306.588 66.9041C306.588 62.1986 303.95 58.0446 299.194 58.0446C298.005 58.0446 295.924 58.302 294.624 60.1768L294.364 58.3755H288.344V83.2261ZM294.624 66.7938C294.624 64.7352 295.516 63.3382 297.411 63.3382C299.64 63.3382 300.272 65.3601 300.272 67.2349C300.272 70.0288 298.86 71.3154 296.63 71.3154C295.999 71.3154 295.181 71.2052 294.624 70.9478V66.7938Z" fill="black"/>
<defs>
<filter id="filter0_d_3_21320" x="5.8501" y="0.624023" width="365.15" height="154.835" filterUnits="userSpaceOnUse" color-interpolation-filters="sRGB">
<feFlood flood-opacity="0" result="BackgroundImageFix"/>
<feColorMatrix in="SourceAlpha" type="matrix" values="0 0 0 0 0 0 0 0 0 0 0 0 0 0 0 0 0 0 127 0" result="hardAlpha"/>
<feOffset dy="10"/>
<feGaussianBlur stdDeviation="10"/>
<feComposite in2="hardAlpha" operator="out"/>
<feColorMatrix type="matrix" values="0 0 0 0 0.340417 0 0 0 0 0.475 0 0 0 0 0.417637 0 0 0 0.25 0"/>
<feBlend mode="normal" in2="BackgroundImageFix" result="effect1_dropShadow_3_21320"/>
<feBlend mode="normal" in="SourceGraphic" in2="effect1_dropShadow_3_21320" result="shape"/>
</filter>
</defs>
</svg>
